HIERARCHY
ROOT hip
{
	OFFSET 0.000000 0.000000 0.000000 
	CHANNELS 6 Xposition Yposition Zposition Xrotation Zrotation Yrotation
	JOINT abdomen
	{
		OFFSET 0.000000 3.402643 0.000000 
		CHANNELS 3 Xrotation Zrotation Yrotation
		JOINT chest
		{
			OFFSET 0.000000 8.438565 -0.680529 
			CHANNELS 3 Xrotation Zrotation Yrotation
			JOINT neck
			{
				OFFSET 0.000000 10.207942 -0.272212 
				CHANNELS 3 Xrotation Zrotation Yrotation
				JOINT head
				{
					OFFSET 0.000000 3.130431 0.000000 
					CHANNELS 3 Xrotation Zrotation Yrotation
					End Site
					{
						OFFSET 0.000000 3.130435 0.000000 
					}
				}
			}
			JOINT lCollar
			{
				OFFSET 3.470700 6.669187 -0.816635 
				CHANNELS 3 Yrotation Zrotation Xrotation
				JOINT lShldr
				{
					OFFSET 3.198488 0.000000 0.000000 
					CHANNELS 3 Zrotation Yrotation Xrotation
					JOINT lForeArm
					{
						OFFSET 10.139888 0.000000 0.000000 
						CHANNELS 3 Yrotation Zrotation Xrotation
						JOINT lHand
						{
							OFFSET 8.370511 0.000000 0.000000 
							CHANNELS 3 Zrotation Yrotation Xrotation
							End Site
							{
								OFFSET 4.083176 0.000000 0.000000 
							}
						}
					}
				}
			}
			JOINT rCollar
			{
				OFFSET -3.470700 6.669187 -0.816635 
				CHANNELS 3 Yrotation Zrotation Xrotation
				JOINT rShldr
				{
					OFFSET -3.198488 0.000000 0.000000 
					CHANNELS 3 Zrotation Yrotation Xrotation
					JOINT rForeArm
					{
						OFFSET -10.139888 0.000000 0.000000 
						CHANNELS 3 Yrotation Zrotation Xrotation
						JOINT rHand
						{
							OFFSET -8.370511 0.000000 0.000000 
							CHANNELS 3 Zrotation Yrotation Xrotation
							End Site
							{
								OFFSET -4.083176 0.000000 0.000000 
							}
						}
					}
				}
			}
		}
	}
	JOINT lThigh
	{
		OFFSET 5.308129 -1.633274 1.361059 
		CHANNELS 3 Xrotation Zrotation Yrotation
		JOINT lShin
		{
			OFFSET -2.041588 -20.007561 0.000000 
			CHANNELS 3 Xrotation Zrotation Yrotation
			JOINT lFoot
			{
				OFFSET 0.000000 -19.190928 -1.224953 
				CHANNELS 3 Xrotation Yrotation Zrotation
				End Site
				{
					OFFSET 0.000000 -2.449906 4.627600 
				}
			}
		}
	}
	JOINT rThigh
	{
		OFFSET -5.308129 -1.633274 1.361059 
		CHANNELS 3 Xrotation Zrotation Yrotation
		JOINT rShin
		{
			OFFSET 2.041588 -20.007561 0.000000 
			CHANNELS 3 Xrotation Zrotation Yrotation
			JOINT rFoot
			{
				OFFSET 0.000000 -19.190928 -1.224953 
				CHANNELS 3 Xrotation Yrotation Zrotation
				End Site
				{
					OFFSET 0.000000 -2.449906 4.627600 
				}
			}
		}
	}
}
MOTION
Frames: 13
Frame Time: 0.011111
-52.968693 53.524193 -3.106625 -3.852650 -12.377853 88.960884 8.579279 3.964523 6.749559 -15.595547 -0.443466 1.531324 -10.519299 -4.764357 -2.552005 11.332564 9.185369 -5.384325 -13.725516 -13.189672 -3.762996 -55.829151 -21.973221 65.445007 -88.458710 4.456081 34.010872 8.524705 12.647240 -28.841198 8.354301 9.292459 -1.514610 63.850487 11.958991 63.227394 88.187508 -4.176010 33.781021 -8.534408 -12.637552 69.740097 -8.425039 10.981433 8.363316 11.216346 -5.967893 -2.267187 -20.921740 -4.693289 -4.462876 -23.418900 -8.015749 5.169493 18.201982 5.819973 3.250649 -19.895712 -10.199368 -0.556578 
-53.128609 53.497059 -3.249300 -3.841604 -12.450288 88.833458 8.671825 3.792654 6.800783 -15.566320 -0.436208 1.551401 -10.591608 -4.400655 -2.654600 11.693188 8.529002 -5.525665 -13.725516 -13.189672 -3.762996 -55.730637 -21.881586 65.540497 -88.465576 4.464111 34.019974 8.524705 12.647240 -28.880262 8.354301 9.292459 -1.514610 64.073769 11.764308 63.004402 88.177902 -4.169347 33.771248 -8.534408 -12.637552 69.261574 -8.593556 10.790643 8.115067 11.078078 -5.977134 -2.275048 -20.734608 -4.429920 -4.370756 -24.187241 -8.134260 4.891124 19.130659 5.787242 3.387877 -20.252090 -9.622030 -0.479304 
-53.287563 53.474400 -3.391976 -3.800115 -12.543528 88.655716 8.743784 3.623621 6.870013 -15.429733 -0.432783 1.580478 -10.978286 -4.188078 -2.769307 12.451915 7.972094 -5.726546 -13.725516 -13.189672 -3.762996 -55.655582 -21.845232 65.598061 -88.466240 4.463737 34.019970 8.524705 12.647240 -28.938852 8.354301 9.292459 -1.514610 64.192665 11.811191 62.807728 88.156097 -4.146348 33.752270 -8.534408 -12.637552 68.997910 -8.825338 10.639965 8.305856 11.056886 -5.976260 -2.253757 -20.509193 -4.478644 -4.386858 -25.014860 -8.240973 4.662358 20.155397 5.757652 3.534052 -20.562668 -9.205215 -0.436369 
-53.434067 53.463226 -3.520288 -3.764520 -12.554385 88.608192 8.885371 3.464789 6.853776 -15.380923 -0.434130 1.580109 -11.481569 -4.004419 -2.935256 13.563715 7.427040 -6.020777 -13.725516 -13.189672 -3.762996 -55.526260 -21.726936 65.659523 -88.479904 4.479140 34.029961 8.524705 12.647240 -28.997448 8.354301 9.292459 -1.514610 64.359764 11.795998 62.639576 88.127983 -4.114927 33.723499 -8.534408 -12.637552 68.743996 -9.029120 10.491808 8.615866 11.227468 -5.966227 -2.297131 -20.371386 -4.732775 -4.475289 -25.674984 -8.357619 4.330299 21.308613 5.722633 3.681703 -20.960077 -8.909958 -0.405253 
-53.552807 53.473122 -3.638067 -3.893933 -12.589275 88.779404 8.869449 3.515664 6.719747 -15.185609 -0.416431 1.541544 -12.152564 -4.026752 -3.111468 14.873167 7.012962 -6.373612 -13.725516 -13.189672 -3.762996 -55.500668 -21.791586 65.676682 -88.471680 4.471874 34.020119 8.524705 12.647240 -29.007215 8.354301 9.292459 -1.514610 64.483177 11.685616 62.421032 88.100136 -4.084017 33.704479 -8.534408 -12.637552 68.255722 -9.272882 10.481491 8.648998 11.349192 -5.966216 -2.298921 -20.291626 -4.947002 -4.553227 -26.139309 -8.358479 3.599161 22.500549 5.669753 3.847722 -21.449389 -8.663023 -0.476476 
-53.638027 53.473759 -3.709245 -4.123089 -12.386813 89.052597 8.966718 3.553314 6.515701 -14.814719 -0.234977 1.489259 -12.915681 -3.714539 -3.350322 16.271273 5.843476 -6.873169 -13.725516 -13.189672 -3.762996 -55.531147 -22.078993 65.702072 -88.436935 4.433332 33.991039 8.524705 12.647240 -29.065809 8.354301 9.292459 -1.514610 64.483177 11.685616 62.137825 88.100746 -4.083705 33.704472 -8.534408 -12.637552 67.708839 -9.204779 10.618459 8.658779 11.299993 -5.976009 -2.295299 -20.167330 -5.223862 -4.677788 -26.165842 -8.211562 2.844418 23.706081 5.623927 4.005419 -22.583178 -8.374069 -0.618906 
-53.681114 53.443436 -3.704139 -4.697092 -11.949885 89.348633 9.357635 3.792788 6.437120 -14.736553 -0.183503 1.445283 -12.820783 -3.352308 -3.547697 16.179674 5.423239 -7.229926 -13.725516 -13.189672 -3.762996 -55.324181 -22.084305 65.899315 -88.428772 4.426013 33.981960 8.524705 12.647240 -29.251354 8.354301 9.292459 -1.514610 64.761497 11.449746 61.901745 88.128685 -4.115245 33.733234 -8.534408 -12.637552 67.152199 -8.885227 11.315752 8.876579 11.177131 -5.977891 -2.293660 -19.967852 -5.641204 -4.811717 -25.715221 -7.537362 2.188057 24.918083 5.575383 4.153215 -23.063328 -8.460439 -0.782300 
-53.811024 53.498657 -3.884797 -4.360258 -12.292652 89.272408 9.086919 3.532223 6.482810 -14.707025 -0.451506 1.466959 -12.661107 -3.155322 -3.658581 15.905375 5.262610 -7.407864 -13.725516 -13.189672 -3.762996 -55.202042 -22.198288 66.066849 -88.429527 4.426280 33.991692 8.524705 12.647240 -29.436903 8.354301 9.292459 -1.514610 64.869019 11.188992 61.738552 88.157333 -4.145704 33.752258 -8.534408 -12.637552 66.781113 -9.157598 10.611226 8.631050 10.967794 -5.975731 -2.265258 -19.801569 -5.413480 -4.731659 -26.614370 -8.084034 1.187851 26.589888 5.493011 4.392534 -22.530706 -8.061800 -0.520564 
-53.915077 53.533127 -4.001937 -4.338165 -12.386197 89.380051 9.015258 3.499243 6.429015 -14.638493 -0.549395 1.446673 -12.574180 -3.237588 -3.653701 15.844193 5.531124 -7.390793 -13.725516 -13.189672 -3.762996 -55.177296 -22.333338 66.152138 -88.450516 4.448790 34.001030 8.524705 12.647240 -29.544325 8.354301 9.292459 -1.514610 64.825974 11.024740 61.700180 88.199173 -4.192598 33.790230 -8.534408 -12.637552 66.771339 -9.263247 10.354921 8.268517 10.767137 -5.977484 -2.217593 -19.622334 -5.198993 -4.637354 -27.037647 -8.221525 0.346170 28.195366 5.413950 4.606312 -22.322821 -7.868417 -0.404243 
-53.977955 53.531853 -4.036409 -4.565487 -12.253352 89.561920 9.078164 3.519767 6.362450 -14.531192 -0.451925 1.426718 -12.603709 -3.370862 -3.702816 16.004536 5.914427 -7.452217 -13.725516 -13.189672 -3.762996 -55.151684 -22.508326 66.218887 -88.466919 4.463363 34.020714 8.524705 12.647240 -29.554092 8.354301 9.292459 -1.514610 64.754387 10.984674 61.676411 88.244026 -4.238513 33.838654 -8.534408 -12.637552 66.712746 -9.216781 10.534034 8.110773 10.621661 -5.978180 -2.194656 -19.457535 -5.202203 -4.628150 -27.019241 -7.967803 -0.242897 29.687687 5.326935 4.806359 -22.403654 -7.722682 -0.376814 
-54.007324 53.509823 -4.026834 -4.921985 -11.944228 89.747040 9.280735 3.584448 6.333904 -14.433764 -0.287205 1.424219 -12.692076 -3.550430 -3.758807 16.309978 6.401166 -7.545871 -13.725516 -13.189672 -3.762996 -55.112274 -22.700399 66.306267 -88.486710 4.486516 34.030094 8.524705 12.647240 -29.388075 8.354301 9.292459 -1.514610 64.676949 10.983255 61.613594 88.272774 -4.268774 33.857746 -8.534408 -12.637552 66.507668 -8.951921 10.942120 8.093040 10.454184 -5.977161 -2.169856 -19.346104 -5.228908 -4.636774 -26.628952 -7.431077 -0.529205 30.995029 5.258308 4.982348 -22.630495 -7.521824 -0.346795 
-54.049778 53.503445 -4.053007 -5.095337 -11.695821 89.852356 9.458062 3.574531 6.371925 -14.502191 -0.217524 1.431734 -12.643543 -3.634120 -3.792330 16.472614 6.621158 -7.592659 -13.725516 -13.189672 -3.762996 -55.109028 -22.749853 66.408669 -88.510811 4.508605 34.058880 8.524705 12.647240 -29.056042 8.354301 9.292459 -1.514610 64.568069 10.868670 61.606812 88.287949 -4.284148 33.876671 -8.534408 -12.637552 66.702988 -8.668944 11.098400 8.070457 10.229374 -5.976965 -2.130076 -19.237595 -5.246527 -4.639029 -26.305771 -7.167483 -0.765836 32.202675 5.184978 5.109474 -22.749882 -7.136339 -0.236754 
-54.117119 53.510784 -4.117482 -5.032317 -11.645922 89.876312 9.472394 3.423735 6.413331 -14.619395 -0.237037 1.459308 -12.516705 -3.658502 -3.812886 16.441845 6.743007 -7.615709 -13.725516 -13.189672 -3.762996 -55.125011 -22.833559 66.480194 -88.546722 4.546406 34.087994 8.524705 12.647240 -28.645887 8.354301 9.292459 -1.514610 64.424835 10.788598 61.641193 88.308998 -4.306738 33.885952 -8.534408 -12.637552 66.966660 -8.563527 10.926125 8.124509 10.025257 -5.997029 -2.103186 -19.099642 -5.297995 -4.637693 -26.294603 -7.254816 -0.964375 33.395561 5.126578 5.257400 -22.818981 -6.594959 -0.058404 
